<?xml version="1.0" standalone="no"?>
<!DOCTYPE svg PUBLIC "-//W3C//DTD SVG 20010904//EN"
 "http://www.w3.org/TR/2001/REC-SVG-20010904/DTD/svg10.dtd">
<svg version="1.0" xmlns="http://www.w3.org/2000/svg"
 width="327.000000pt" height="220.000000pt" viewBox="0 0 327.000000 220.000000"
 preserveAspectRatio="xMidYMid meet">
<metadata>
Created by potrace 1.16, written by Peter Selinger 2001-2019
</metadata>
<g transform="translate(0.000000,220.000000) scale(0.100000,-0.100000)"
fill="#000000" stroke="none">
<path d="M710 1091 c0 -5 42 -11 93 -13 143 -7 197 -48 197 -153 0 -103 -56
-148 -185 -149 l-80 -1 -3 73 c-4 102 -22 90 -22 -14 l0 -87 94 5 c107 6 158
26 192 76 67 98 16 231 -100 261 -53 13 -186 15 -186 2z"/>
<path d="M1753 1088 c-12 -16 -153 -322 -153 -333 0 -28 38 37 96 166 41 91
70 145 75 137 3 -7 37 -79 74 -160 37 -82 72 -148 76 -148 14 0 12 5 -62 169
-77 170 -90 190 -106 169z"/>
</g>
</svg>
